<svg width="24" height="24" viewBox="0 0 24 24" fill="none" xmlns="http://www.w3.org/2000/svg">
<path d="M5.40882 20.7755L5.40884 20.7753C5.24276 20.7636 5.10513 20.6935 5.01023 20.5773C4.93553 20.4858 4.89117 20.3706 4.87622 20.243H4.86769V20.143C4.86769 18.8381 5.21376 17.6161 5.81341 16.5614H2.43545C2.26477 16.5614 2.11855 16.4984 2.01513 16.3837C1.9129 16.2704 1.85961 16.1146 1.85641 15.9394M5.40882 20.7755L1.95638 15.9373M5.40882 20.7755L5.4158 20.7755L18.5545 20.7783C18.8752 20.7783 19.1336 20.5187 19.1336 20.1993C19.1336 18.9325 18.7597 17.6105 18.1653 16.5615L21.564 16.5606C21.8846 16.5606 22.143 16.301 22.143 15.9815L22.143 15.9802C22.1125 13.5787 20.7612 11.5478 18.6421 10.6785C19.7861 9.95117 20.5184 8.67428 20.5184 7.25894C20.5184 3.79601 16.468 1.96129 13.9042 4.20525C12.6927 3.70609 11.307 3.70609 10.0955 4.20525C9.37697 3.57682 8.45385 3.22244 7.48195 3.22244C3.45249 3.22244 1.9953 8.57352 5.35681 10.68M5.40882 20.7755L5.5835 10.6986C5.54591 10.6774 5.50888 10.6557 5.47241 10.6337C5.43368 10.6487 5.39514 10.6642 5.35681 10.68M1.85641 15.9394C1.8564 15.9393 1.8564 15.9392 1.8564 15.9391L1.95638 15.9373M1.85641 15.9394C1.85641 15.9396 1.85641 15.9397 1.85641 15.9398L1.95638 15.9373M1.85641 15.9394C1.8009 13.6743 3.27904 11.5403 5.35681 10.68M1.95638 15.9373C1.90119 13.691 3.38574 11.5712 5.46331 10.7447C5.42729 10.7235 5.39179 10.7019 5.35681 10.68M5.98769 16.4614H5.87131L5.9287 16.5614C5.9481 16.5279 5.96777 16.4945 5.98769 16.4614ZM18.529 5.22076L18.529 5.2208C20.2108 6.91951 19.1948 9.83038 16.877 10.1179C17.3723 8.11419 16.609 6.0353 14.9941 4.82702C16.1109 4.10954 17.5823 4.26355 18.529 5.22076ZM7.12482 10.1176C5.71243 9.93782 4.64033 8.71874 4.64033 7.26076C4.64033 4.96072 7.15003 3.62642 9.00802 4.82693C7.3931 6.03504 6.62975 8.11378 7.12482 10.1176ZM15.4988 10.5398C14.118 13.541 9.88201 13.5437 8.50118 10.5398C7.27853 7.87708 9.24235 4.98944 11.9891 4.98901C14.9025 5.02523 16.6823 7.96712 15.4988 10.5398ZM3.04596 15.4043C3.31221 13.0952 5.28105 11.3434 7.64656 11.4198C8.11469 12.2352 8.80139 12.9107 9.63059 13.3565C8.46491 13.7712 7.43563 14.482 6.63471 15.4042L3.04596 15.4043ZM17.3445 15.4042C16.5465 14.4875 15.5227 13.7755 14.3623 13.3621C15.1946 12.9141 15.8859 12.2383 16.3561 11.4198C18.7216 11.3434 20.6905 13.0943 20.9567 15.4042H17.3445ZM6.04799 19.6201C6.16918 18.1942 6.80658 16.8487 7.77183 15.8727C11.3811 12.2248 17.512 14.5852 17.9317 19.6201H6.04799Z" fill="#5718FF" stroke="#5718FF" stroke-width="0.2"/>
<path d="M13.2471 9.79774L13.2395 9.81237C12.7073 10.8176 11.2757 10.8107 10.7509 9.79791C10.6665 9.6342 10.5368 9.53764 10.3924 9.50168C10.2506 9.46634 10.1019 9.49121 9.97735 9.55535C9.8528 9.61949 9.7462 9.72605 9.69256 9.86213C9.63799 10.0006 9.64128 10.1624 9.72562 10.3264L9.72568 10.3266C10.6816 12.179 13.32 12.1791 14.275 10.3265C14.3596 10.1625 14.3631 10.0006 14.3085 9.86202C14.2548 9.72582 14.1481 9.61917 14.0233 9.55498C13.8985 9.49079 13.7495 9.46592 13.6073 9.50127C13.4625 9.53724 13.3322 9.63383 13.2471 9.79774ZM14.1861 10.2807C13.2683 12.061 10.7333 12.061 9.81455 10.2807L13.4019 9.74383C13.7353 9.3458 14.4544 9.7607 14.1861 10.2807Z" fill="#5718FF" stroke="#5718FF" stroke-width="0.2"/>
</svg>
