<svg width="22" height="22" viewBox="0 0 22 22" fill="none" xmlns="http://www.w3.org/2000/svg">
<g clip-path="url(#clip0_0_964)">
<path d="M10.7809 13.9718L10.8295 14.0592C10.8282 14.0599 10.827 14.0605 10.8257 14.0612L10.7809 13.9718ZM10.7809 13.9718C10.8108 13.9568 10.8408 13.942 10.8707 13.9275L10.8683 13.9232L10.7809 13.9718ZM19.2882 13.4376L19.2877 13.4374C18.6974 13.1974 18.2366 13.0011 17.9162 12.7334C17.6117 12.479 17.4326 12.158 17.4084 11.6562C17.6451 11.3532 17.7986 10.9772 17.8978 10.6432C17.9958 10.3135 18.0427 10.0182 18.0633 9.8612C18.4558 9.24653 18.6135 8.62023 18.5473 8.18824C18.8775 7.3912 18.6457 6.74352 18.4261 6.23026C18.2437 5.79197 18.1121 5.42118 18.2809 4.94652L18.3906 4.65429L18.421 4.57337L18.3453 4.5316L18.0153 4.34941L18.0154 4.34922L18.0094 4.34642C16.8165 3.78711 15.4665 3.70849 14.4811 4.12484L14.4811 4.12477L14.4774 4.12647C13.8423 4.42522 13.3485 4.91221 13.1145 5.58765C12.7367 5.90256 12.5609 6.36166 12.5005 6.82116C12.4402 7.27956 12.4932 7.74923 12.5839 8.10503C12.478 8.57833 12.6742 9.21151 13.0676 9.82603C13.0882 9.98266 13.1351 10.2779 13.2331 10.6076C13.3321 10.9411 13.4853 11.3166 13.7213 11.6195C13.6803 12.1225 13.5005 12.4443 13.2003 12.6987C12.8846 12.9661 12.433 13.1624 11.8432 13.4022L11.8273 13.4086C11.4663 13.5531 11.1018 13.699 10.7361 13.8824L10.6428 13.9291L10.6935 14.0204L11.0604 14.6804L11.109 14.7677L11.1964 14.7192C11.4106 14.6004 11.6199 14.5151 11.8355 14.4273C11.9469 14.3819 12.06 14.3358 12.1762 14.2841C12.7413 14.0654 13.3623 13.8218 13.8399 13.4056C14.3245 12.9835 14.6578 12.3878 14.6578 11.4787V11.3318V11.2903L14.6286 11.2611L14.5186 11.1511C14.3348 10.9673 14.2032 10.6748 14.1177 10.3825C14.0326 10.0915 13.9978 9.81687 13.9978 9.68177V9.57177V9.54791L13.9871 9.52662L13.9501 9.45358L13.9508 9.45325L13.9441 9.44325C13.729 9.12057 13.6145 8.85482 13.5581 8.6597C13.5299 8.56205 13.5164 8.4829 13.5119 8.42373C13.5077 8.36983 13.5115 8.33827 13.5144 8.32521L13.5835 8.18628L13.5999 8.1532L13.5909 8.11738L13.554 7.97042L13.5542 7.97036L13.5519 7.96323C13.4649 7.70204 13.4206 7.34063 13.4558 7.00625C13.4913 6.6682 13.6048 6.38461 13.8062 6.2445L13.9153 6.17203L13.9476 6.15063L13.957 6.11311L13.9936 5.96776C14.1331 5.48181 14.4069 5.14058 14.8894 4.93368L14.8895 4.93374L14.8928 4.93215C15.5387 4.62636 16.4281 4.64715 17.2688 4.97769C17.1823 5.59111 17.3669 6.06784 17.5437 6.49093C17.5559 6.52516 17.568 6.55869 17.5799 6.59161C17.7489 7.05946 17.8734 7.4039 17.6218 7.87465L17.6213 7.87435L17.6172 7.88471L17.5441 8.06776L17.5275 8.10929L17.5474 8.14934L17.6185 8.29225C17.6188 8.29414 17.6196 8.29842 17.6202 8.3058C17.6214 8.32079 17.6216 8.34274 17.6196 8.37187C17.6155 8.42991 17.603 8.51082 17.5767 8.61143C17.5245 8.81186 17.4188 9.08632 17.223 9.40751L17.1505 9.51369L17.1331 9.53919V9.57006V9.67378C17.1144 9.82138 17.0783 10.0957 16.999 10.3821C16.9178 10.6756 16.7951 10.9666 16.6124 11.1493L16.5024 11.2593L16.4731 11.2886V11.3301V11.477C16.4731 12.3861 16.8065 12.9818 17.291 13.4039C17.7693 13.8206 18.3913 14.0644 18.957 14.2833C19.5285 14.5045 20.0441 14.71 20.4373 15.0368C20.8038 15.3416 21.0671 15.7552 21.1538 16.4001H14.667H14.567V16.5001V17.2331V17.3331H14.667H22H22.1V17.2331V16.8661C22.1 15.7212 21.7041 14.9795 21.1466 14.4649C20.595 13.9559 19.8906 13.675 19.2882 13.4376Z" fill="#DF18FF" stroke="#DF18FF" stroke-width="0.2"/>
<path d="M7.22392 4.52091C6.14637 4.52091 5.53815 5.03202 5.22969 5.3377C4.2622 5.58723 3.75817 6.12833 3.49683 6.77948C3.24049 7.41813 3.21981 8.15866 3.20167 8.80803L3.20094 8.83427C3.20094 8.83441 3.20093 8.83454 3.20093 8.83468C3.18236 9.3507 3.16407 9.83447 3.06168 10.2486C2.96036 10.6584 2.77923 10.9889 2.4423 11.2091L2.11541 11.3904L2.02052 11.4431L2.08071 11.5333L2.3007 11.8633C2.81691 12.6381 3.96456 13.3623 5.15284 13.7087C4.74433 14.8621 3.75589 15.2426 2.68054 15.6366C2.04187 15.8551 1.34551 16.0982 0.811165 16.5472C0.269578 17.0023 -0.1 17.6633 -0.1 18.7V19.067V19.167H0H13.933H14.033V19.067V18.7C14.033 17.6634 13.6635 17.0025 13.127 16.5474C12.5974 16.0982 11.9104 15.8547 11.2908 15.6359C11.2748 15.6301 11.2589 15.6242 11.243 15.6184C10.1834 15.2304 9.21975 14.8776 8.81722 13.708C10.0058 13.3617 11.153 12.6374 11.6701 11.8625L11.6702 11.8625L11.8902 11.5325L11.9504 11.4422L11.8555 11.3895L11.528 11.2079C11.2099 11.006 11.0004 10.6482 10.8478 10.1813C10.695 9.71369 10.6045 9.15373 10.5127 8.56549L10.5126 8.56449C10.5081 8.53796 10.5037 8.5113 10.4993 8.48453C10.3571 7.62873 10.1955 6.65609 9.75846 5.8913C9.53166 5.4944 9.22924 5.15031 8.81487 4.90602C8.40045 4.6617 7.88033 4.52091 7.22392 4.52091ZM13.0804 18.2331H0.885611C0.972968 17.723 1.21322 17.4009 1.55226 17.1587C1.89855 16.9113 2.34679 16.7472 2.85636 16.5607C2.8931 16.5473 2.93015 16.5337 2.96751 16.52L2.96788 16.5198C2.98244 16.5144 2.99702 16.509 3.01163 16.5036C3.63804 16.2708 4.31282 16.0201 4.88621 15.5844C5.47744 15.135 5.95844 14.4915 6.1837 13.4778L6.18372 13.4778L6.18415 13.4756L6.2572 13.1087L6.27672 13.0106L6.17865 12.9911L5.81169 12.918L5.81169 12.918L5.81035 12.9178C4.87991 12.7457 3.88295 12.2082 3.33135 11.6619C3.6876 11.3065 3.87773 10.8644 3.9834 10.3976C4.09456 9.90665 4.1137 9.38091 4.13149 8.89259L4.1321 8.87583H4.13211L4.13214 8.87465C4.1507 8.1194 4.1882 7.52539 4.38069 7.08337C4.47559 6.86547 4.60774 6.68613 4.79419 6.54358C4.98132 6.40051 5.22786 6.29091 5.55633 6.21993L5.55646 6.22054L5.56705 6.21698L5.67705 6.18003L5.69931 6.17255L5.71592 6.15595L5.78896 6.0829L5.78946 6.0824C6.04114 5.83072 6.41967 5.45219 7.22129 5.45219C7.65914 5.45219 7.99995 5.52815 8.27152 5.66852C8.54227 5.80846 8.75076 6.01579 8.91924 6.28936C9.26016 6.84292 9.43195 7.65667 9.6157 8.70568C9.70696 9.27252 9.79964 9.84749 9.95778 10.3682C10.106 10.8563 10.3138 11.3043 10.6385 11.6586C10.0876 12.2059 9.0885 12.7446 8.15606 12.9178L8.15481 12.918L7.78785 12.9911L7.68977 13.0106L7.7093 13.1087L7.78234 13.4756L7.78243 13.4761C7.98903 14.491 8.47062 15.1352 9.06674 15.5846C9.63655 16.0142 10.3094 16.264 10.9286 16.4939C10.952 16.5025 10.9754 16.5112 10.9986 16.5198L10.9991 16.52L11.0071 16.523C11.5578 16.7247 12.0443 16.903 12.4139 17.1714C12.7533 17.4179 12.993 17.74 13.0804 18.2331Z" fill="#DF18FF" stroke="#DF18FF" stroke-width="0.2"/>
</g>
<defs>
<clipPath id="clip0_0_964">
<rect width="22" height="22" fill="white"/>
</clipPath>
</defs>
</svg>
